Patient4_TMGait_0pt4_02_right_36_GRF.mot
version=1
nRows=65
nColumns=19
inDegrees=no
endheader
time	F1x	F1y	F1z	M1x	M1y	M1z	F2x	F2y	F2z	M2x	M2y	M2z	EC1x	EC1y	EC1z	EC2x	EC2y	EC2z
47.51	1.5523	749.8851	76.2754	-241.4345	-74.7814	778.6321	-4.1078	18.1414	-2.6168	3.99	4.1817	19.3572	-0.0592	0.0182	-0.0073	-0.0462	0.0165	0.9585
47.5232	3.7802	741.9175	73.3713	-239.3937	-70.8566	768.6288	-3.0473	12.8288	-1.8105	2.971	2.9911	13.7025	-0.0592	0.0182	-0.0073	-0.0462	0.0165	0.9585
47.5364	6.0655	733.9389	70.586	-237.3521	-66.9271	758.1548	-2.1124	8.4311	-1.149	2.1352	2.0049	9.0361	-0.0592	0.0182	-0.0073	-0.0462	0.0165	0.9585
47.5496	8.303	727.0281	68.0829	-235.619	-63.212	748.4022	-1.3715	5.1696	-0.65431	1.5243	1.2619	5.5883	-0.0592	0.0182	-0.0073	-0.0462	0.0165	0.9585
47.5629	10.4235	722.1026	65.9757	-234.4678	-59.8709	740.4185	-0.84712	2.9933	-0.32353	1.1269	0.7592	3.3037	-0.0592	0.0182	-0.0073	-0.0462	0.0165	0.9585
47.5761	12.3922	719.7615	64.3076	-234.0789	-56.9813	734.9036	-0.53115	1.7126	-0.12307	0.90282	0.45787	1.9755	-0.0592	0.0182	-0.0073	-0.0462	0.0165	0.9585
47.5893	14.1977	720.2124	63.0987	-234.5105	-54.5848	732.1317	-0.38078	1.0924	-0.030308	0.80161	0.32147	1.3464	-0.0592	0.0182	-0.0073	-0.0462	0.0165	0.9585
47.6025	15.8506	723.3231	62.3405	-235.7183	-52.6836	732.0111	-0.37059	0.89021	-0.014535	0.76856	0.30899	1.1603	-0.0592	0.0182	-0.0073	-0.0462	0.0165	0.9585
47.6157	17.3797	728.7342	62.0165	-237.5867	-51.2677	734.2148	-0.46873	0.85184	-0.052635	0.74051	0.38886	1.1347	-0.0592	0.0182	-0.0073	-0.0462	0.0165	0.9585
47.6289	18.8205	735.9541	62.0814	-239.9591	-50.2931	738.2603	-0.65255	0.77817	-0.125	0.66377	0.53433	1.0459	-0.0592	0.0182	-0.0073	-0.0462	0.0165	0.9585
47.6421	20.2312	744.4435	62.48	-242.6645	-49.6901	743.5924	-0.88477	0.48951	-0.22355	0.48737	0.72437	0.68996	-0.0592	0.0182	-0.0073	-0.0462	0.0165	0.9585
47.6554	21.6814	753.6504	63.1366	-245.5263	-49.3627	749.6371	-1.1427	-0.17019	-0.33671	0.16414	0.93683	-0.09694	-0.0592	0.0182	-0.0073	-0.0462	0.0165	0.9585
47.6686	23.2662	762.9307	63.9819	-248.3389	-49.2111	755.7325	-1.3827	-1.2986	-0.45803	-0.33864	1.1479	-1.4182	-0.0592	0.0182	-0.0073	-0.0462	0.0165	0.9585
47.6818	25.0769	771.5599	64.9462	-250.8674	-49.1366	761.1533	-1.5227	-2.9232	-0.5662	-1.0297	1.3059	-3.3044	-0.0592	0.0182	-0.0073	-0.0462	0.0165	0.9585
47.695	27.1686	778.748	65.9557	-252.853	-49.0492	765.1384	-1.4695	-4.9754	-0.62993	-1.8782	1.3386	-5.665	-0.0592	0.0182	-0.0073	-0.0462	0.0165	0.9585
47.7082	29.5247	783.6046	66.939	-254	-48.8865	766.8779	-1.0717	-7.2128	-0.59841	-2.7853	1.1309	-8.2227	-0.0592	0.0182	-0.0073	-0.0462	0.0165	0.9585
47.7214	32.0668	785.1865	67.8379	-253.9878	-48.6243	765.5408	-0.14169	-9.1297	-0.4024	-3.5503	0.5334	-10.4014	-0.0592	0.0182	-0.0073	-0.0462	0.0165	0.9585
47.7346	34.6745	782.7164	68.6184	-252.5428	-48.2772	760.4676	1.5203	-9.9226	0.050001	-3.8486	-0.63722	-11.2921	-0.0592	0.0182	-0.0073	-0.0462	0.0165	0.9585
47.7479	37.1952	775.8104	69.2611	-249.5228	-47.8905	751.3854	4.0962	-8.3925	0.85079	-3.1962	-2.5594	-9.5304	-0.0592	0.0182	-0.0073	-0.0462	0.0165	0.9585
47.7611	39.4863	764.5916	69.7517	-244.9608	-47.5128	738.4941	7.6968	-2.9147	2.0808	-0.94039	-5.3645	-3.2659	-0.0592	0.0182	-0.0073	-0.0462	0.0165	0.9585
47.7743	41.4282	749.621	70.046	-239.0478	-47.1543	722.4067	12.2481	8.4679	3.7806	3.707	-9.0576	9.7312	-0.0592	0.0182	-0.0073	-0.0462	0.0165	0.9585
47.7875	42.9358	731.6618	70.051	-232.0608	-46.7659	703.9094	17.3571	27.8438	5.9048	11.5855	-13.414	31.8443	-0.0592	0.0182	-0.0073	-0.0462	0.0165	0.9585
47.8007	43.935	711.3762	69.6054	-224.2641	-46.2234	683.6646	22.1783	57.0089	8.2536	23.4117	-17.8514	65.1121	-0.0592	0.0182	-0.0073	-0.0462	0.0165	0.9585
47.8139	44.3605	689.029	68.5057	-215.8082	-45.3567	661.9285	25.1981	96.722	10.3981	39.479	-21.2685	110.3984	-0.0592	0.0182	-0.0073	-0.0462	0.0165	0.9585
47.8271	44.1574	664.378	66.5145	-206.6943	-43.9562	638.4401	24.4639	145.9903	11.5867	59.3522	-22.0418	166.6136	-0.0592	0.0182	-0.0073	-0.0462	0.0165	0.9585
47.8404	43.2944	636.7893	63.4317	-196.8049	-41.8292	612.5226	18.8622	201.8771	10.8553	81.7576	-18.638	230.5274	-0.0592	0.0182	-0.0073	-0.0462	0.0165	0.9585
47.8536	41.8295	605.4906	59.192	-185.9754	-38.8694	583.3017	9.1998	259.4017	7.5486	104.6128	-10.7209	296.5372	-0.0592	0.0182	-0.0073	-0.0462	0.0165	0.9585
47.8668	39.8959	569.8582	53.9483	-174.0676	-35.1393	550.0043	-2.1334	313.3563	1.947	125.8072	0.40751	358.5414	-0.0592	0.0182	-0.0073	-0.0462	0.0165	0.9585
47.88	37.6165	529.4753	48.0198	-160.9819	-30.8554	512.0653	-13.2496	361.0976	-5.2963	144.2724	13.2131	413.3874	-0.0592	0.0182	-0.0073	-0.0462	0.0165	0.9585
47.8932	35.0134	484.2089	41.7835	-146.6719	-26.3314	469.2469	-22.9683	402.6162	-13.0103	160.0462	25.9304	460.9529	-0.0592	0.0182	-0.0073	-0.0462	0.0165	0.9585
47.9064	32.0429	434.3895	35.5689	-131.2046	-21.8714	421.8219	-30.8473	439.013	-20.4273	173.6251	37.4916	502.4879	-0.0592	0.0182	-0.0073	-0.0462	0.0165	0.9585
47.9196	28.6148	380.9317	29.5905	-114.811	-17.6991	370.6679	-36.7906	471.8734	-27.0095	185.6926	47.27	539.7399	-0.0592	0.0182	-0.0073	-0.0462	0.0165	0.9585
47.9329	24.6256	325.3243	23.9848	-97.8922	-13.9763	317.245	-40.8588	503.0849	-32.9216	197.0159	55.4523	574.7697	-0.0592	0.0182	-0.0073	-0.0462	0.0165	0.9585
47.9461	20.0731	269.5366	18.8741	-80.9953	-10.828	263.4779	-43.2691	534.6149	-38.4084	208.3816	62.4104	609.7334	-0.0592	0.0182	-0.0073	-0.0462	0.0165	0.9585
47.9593	15.0941	215.8121	14.3696	-64.7613	-8.3291	211.5612	-44.3488	567.8853	-43.8649	220.3538	68.7145	646.2189	-0.0592	0.0182	-0.0073	-0.0462	0.0165	0.9585
47.9725	9.9947	166.3654	10.5451	-49.8384	-6.4649	163.6476	-44.5489	603.3028	-49.4635	233.0997	74.7543	684.7177	-0.0592	0.0182	-0.0073	-0.0462	0.0165	0.9585
47.9857	5.2173	122.9799	7.424	-36.7562	-5.1277	121.4621	-44.3356	640.1903	-55.2191	246.379	80.741	724.5353	-0.0592	0.0182	-0.0073	-0.0462	0.0165	0.9585
47.9989	1.1881	86.6315	4.9798	-25.8079	-4.1645	85.9654	-44.0827	677.2093	-60.8869	259.7065	86.5765	764.2442	-0.0592	0.0182	-0.0073	-0.0462	0.0165	0.9585
48.0121	-1.8275	57.4738	3.1346	-17.0436	-3.4227	57.3476	-43.961	712.6632	-66.1932	272.4626	92.0452	801.9937	-0.0592	0.0182	-0.0073	-0.0462	0.0165	0.9585
48.0254	-3.7145	35.105	1.7953	-10.344	-2.7844	35.2863	-43.9869	744.7309	-70.8382	283.9816	96.8374	835.7808	-0.0592	0.0182	-0.0073	-0.0462	0.0165	0.9585
48.0386	-4.4634	18.8041	0.85958	-5.4876	-2.1596	19.131	-44.0789	771.6784	-74.5797	293.6314	100.6546	863.7011	-0.0592	0.0182	-0.0073	-0.0462	0.0165	0.9585
48.0518	-4.2482	7.7113	0.244	-2.2075	-1.5331	8.0751	-44.1072	792.0832	-77.2506	300.89	103.2643	884.2059	-0.0592	0.0182	-0.0073	-0.0462	0.0165	0.9585
48.065	-3.4757	0.91279	-0.1131	-0.2185	-0.97393	1.2443	-43.9545	804.9913	-78.7625	305.4051	104.5262	896.2753	-0.0592	0.0182	-0.0073	-0.0462	0.0165	0.9585
48.0782	-2.5068	-2.6246	-0.27238	0.79492	-0.53534	-2.355	-43.5306	810.0783	-79.1526	307.0542	104.4451	899.5892	-0.0592	0.0182	-0.0073	-0.0462	0.0165	0.9585
48.0914	-1.5727	-3.9132	-0.30683	1.1419	-0.22038	-3.6974	-42.768	807.8041	-78.54	306.0065	103.1268	894.6898	-0.0592	0.0182	-0.0073	-0.0462	0.0165	0.9585
48.1046	-0.77553	-3.8093	-0.26805	1.083	-0.015371	-3.6417	-41.6207	799.3942	-77.1324	302.717	100.7812	882.943	-0.0592	0.0182	-0.0073	-0.0462	0.0165	0.9585
48.1179	-0.16397	-2.9614	-0.19991	0.81185	0.10389	-2.829	-40.068	786.6694	-75.1317	297.8691	97.6284	866.3428	-0.0592	0.0182	-0.0073	-0.0462	0.0165	0.9585
48.1311	0.27246	-1.8361	-0.12721	0.46587	0.16123	-1.7273	-38.1152	771.8297	-72.7476	292.2915	93.9064	847.2707	-0.0592	0.0182	-0.0073	-0.0462	0.0165	0.9585
48.1443	0.54952	-0.70638	-0.067249	0.12428	0.17909	-0.60395	-35.8072	757.1836	-70.1446	286.856	89.8217	828.2087	-0.0592	0.0182	-0.0073	-0.0462	0.0165	0.9585
48.1575	0.70199	0.28241	-0.018932	-0.17227	0.17137	0.3961	-33.2209	744.8077	-67.5044	282.3447	85.6019	811.3825	-0.0592	0.0182	-0.0073	-0.0462	0.0165	0.9585
48.1707	0.76401	1.0668	0.015317	-0.40686	0.1538	1.2024	-30.4538	736.2907	-64.9675	279.352	81.4356	798.4882	-0.0592	0.0182	-0.0073	-0.0462	0.0165	0.9585
48.1839	0.75736	1.6499	0.039844	-0.57962	0.12888	1.8183	-27.6085	732.5646	-62.6831	278.2148	77.5147	790.5151	-0.0592	0.0182	-0.0073	-0.0462	0.0165	0.9585
48.1971	0.71462	2.0498	0.056537	-0.69646	0.10171	2.251	-24.7767	733.8299	-60.7318	278.9873	73.9541	787.6781	-0.0592	0.0182	-0.0073	-0.0462	0.0165	0.9585
48.2104	0.64534	2.2902	0.071329	-0.76456	0.068707	2.5254	-22.025	739.5443	-59.1872	281.4395	70.8441	789.4164	-0.0592	0.0182	-0.0073	-0.0462	0.0165	0.9585
48.2236	0.56249	2.3796	0.090407	-0.7853	0.027293	2.6425	-19.3958	748.553	-58.0457	285.1074	68.1905	794.5309	-0.0592	0.0182	-0.0073	-0.0462	0.0165	0.9585
48.2368	0.45886	2.3117	0.12172	-0.75365	-0.033219	2.5944	-16.9254	759.264	-57.2905	289.3584	65.9851	801.383	-0.0592	0.0182	-0.0073	-0.0462	0.0165	0.9585
48.25	0.33274	2.0518	0.16869	-0.65712	-0.11747	2.3389	-14.6315	769.8624	-56.8568	293.4827	64.1673	808.1198	-0.0592	0.0182	-0.0073	-0.0462	0.0165	0.9585
48.2632	0.18724	1.5443	0.23585	-0.47835	-0.23001	1.8067	-12.5149	778.5767	-56.6921	296.7953	62.6872	812.9646	-0.0592	0.0182	-0.0073	-0.0462	0.0165	0.9585
48.2764	0.01776	0.73418	0.3199	-0.19957	-0.37103	0.92624	-10.5504	783.9374	-56.7025	298.7403	61.4496	814.4574	-0.0592	0.0182	-0.0073	-0.0462	0.0165	0.9585
48.2896	-0.15749	-0.43961	0.41994	0.19447	-0.53537	-0.39277	-8.692	785.0237	-56.81	298.981	60.3663	811.7059	-0.0592	0.0182	-0.0073	-0.0462	0.0165	0.9585
48.3029	-0.31907	-1.9847	0.52536	0.70333	-0.70372	-2.1607	-6.8699	781.5846	-56.9178	297.4424	59.3262	804.4887	-0.0592	0.0182	-0.0073	-0.0462	0.0165	0.9585
48.3161	-0.41578	-3.8311	0.61935	1.3035	-0.8368	-4.2943	-5.0147	774.0013	-56.9923	294.2897	58.2799	793.2194	-0.0592	0.0182	-0.0073	-0.0462	0.0165	0.9585
48.3293	-0.37451	-5.7691	0.65799	1.9268	-0.8583	-6.5445	-3.0566	763.2236	-57.0363	289.899	57.2095	778.8684	-0.0592	0.0182	-0.0073	-0.0462	0.0165	0.9585
48.3425	-0.085305	-7.3869	0.58294	2.4368	-0.66301	-8.4389	-0.92825	750.6086	-57.1151	284.7966	56.1478	762.7863	-0.0592	0.0182	-0.0073	-0.0462	0.0165	0.9585
48.3557	0.59378	-7.999	0.31553	2.6079	-0.11387	-9.1941	1.404	737.7162	-57.2882	279.5862	55.129	746.5146	-0.0592	0.0182	-0.0073	-0.0462	0.0165	0.9585
